<svg width="27" height="27" viewBox="0 0 27 27" fill="none" xmlns="http://www.w3.org/2000/svg">
<path d="M10.2996 23.7776C10.2995 23.7847 10.2991 23.7917 10.2991 23.7987C10.2991 25.5668 11.7323 27 13.5003 27C15.2683 27 16.7016 25.5668 16.7016 23.7987C16.7016 23.7917 16.7011 23.7847 16.7011 23.7776H10.2996Z" fill="#CACACA"/>
<path d="M23.7212 19.7761L20.8401 15.5437C20.8401 14.2482 20.8401 11.0824 20.8401 10.2635C20.8401 6.70248 18.304 3.73416 14.9396 3.06524V1.43925C14.9395 0.644413 14.2952 0 13.5003 0C12.7054 0 12.061 0.644413 12.061 1.43925V3.0653C8.6966 3.73428 6.16056 6.70259 6.16056 10.2635C6.16056 11.6576 6.16056 14.7358 6.16056 15.5438L3.27942 19.7761C2.97594 20.2219 2.94384 20.799 3.19601 21.2757C3.44818 21.7524 3.94324 22.0505 4.48255 22.0505H22.518C23.0573 22.0505 23.5524 21.7523 23.8045 21.2757C24.0568 20.7989 24.0246 20.2219 23.7212 19.7761Z" fill="#CACACA"/>
</svg>
