<svg width="41" height="53" viewBox="0 0 41 53" fill="none" xmlns="http://www.w3.org/2000/svg">
<path d="M1.05664 0C0.504355 0 0.0566406 0.447715 0.0566406 1V51.9359C0.0566406 52.4882 0.504356 52.9359 1.05664 52.9359H2.9017C3.45399 52.9359 3.9017 52.4882 3.9017 51.9359V4.84506C3.9017 4.29278 4.34942 3.84506 4.9017 3.84506H30.0572L15.6949 6.37762C15.217 6.4619 14.8686 6.87714 14.8686 7.36243V47.0598C14.8686 47.5199 15.1825 47.9206 15.6292 48.0307L34.5442 52.6944C35.1746 52.8498 35.7836 52.3727 35.7836 51.7235V46.0939C35.7836 45.7311 36.0777 45.4369 36.4406 45.4369C36.8034 45.4369 37.0975 45.7311 37.0975 46.0939V52C37.0975 52.5523 37.5452 53 38.0975 53H39.9425C40.4947 53 40.9425 52.5523 40.9425 52V0.999999C40.9425 0.447714 40.4947 0 39.9425 0H1.05664ZM36.4406 3.84506C36.8034 3.84506 37.0975 4.13919 37.0975 4.50201V7.99562C37.0975 8.35845 36.8034 8.65257 36.4406 8.65257C36.0777 8.65257 35.7836 8.35845 35.7836 7.99562V4.50201C35.7836 4.13919 36.0777 3.84506 36.4406 3.84506ZM18.5557 29.1614C17.7933 29.1614 17.1752 28.3571 17.1752 27.3651C17.1752 26.3732 17.7933 25.5689 18.5557 25.5689C19.3181 25.5689 19.9361 26.3732 19.9361 27.3651C19.9361 28.3571 19.3181 29.1614 18.5557 29.1614ZM36.4407 39.4557C36.0779 39.4557 35.7838 39.1616 35.7838 38.7988V15.2906C35.7838 14.9278 36.0779 14.6337 36.4407 14.6337C36.8034 14.6337 37.0975 14.9278 37.0975 15.2906V38.7988C37.0975 39.1616 36.8034 39.4557 36.4407 39.4557Z" fill="#F1E2BC"/>
</svg>
