<svg width="66" height="66" viewBox="0 0 66 66" fill="none" xmlns="http://www.w3.org/2000/svg">
<g>
<path d="M60.9539 27.7615C63.4172 24.9054 63.0985 20.5936 60.2424 18.1302C57.3863 15.6674 53.074 15.9857 50.6112 18.8417C49.9158 19.6484 49.4188 20.6056 49.1595 21.6384C46.9726 17.1141 41.5324 15.2198 37.008 17.4067C32.4842 19.5935 30.5899 25.0338 32.7768 29.5581C33.2778 30.5944 33.9707 31.5259 34.8187 32.3039C30.9751 34.4454 29.5949 39.2971 31.7365 43.1411C31.9666 43.554 32.233 43.9457 32.5326 44.3113C31.3387 44.7559 30.2682 45.48 29.4106 46.4221C25.8209 45.265 21.9729 47.2369 20.8157 50.8266C20.5982 51.5014 20.4869 52.2053 20.4864 52.9143H14.7959V59.7433H35.2824C39.1269 59.7408 42.4216 56.9925 43.114 53.2104C47.0386 55.1772 51.8146 53.59 53.7815 49.6654C54.2377 48.755 54.5146 47.7651 54.5977 46.7499C60.2127 47.3955 65.2879 43.3662 65.9329 37.7512C66.3946 33.7294 64.4429 29.8139 60.9539 27.7615Z" fill="#E6E6E6"/>
<path d="M0 52.7758C0 52.2236 0.447715 51.7758 1 51.7758H11.5195C12.0718 51.7758 12.5195 52.2236 12.5195 52.7758V59.8809C12.5195 60.4331 12.0718 60.8809 11.5195 60.8809H0.999999C0.447714 60.8809 0 60.4331 0 59.8809V52.7758Z" fill="#9DE1E1"/>
<path d="M11.3818 50.4994C11.3818 49.9471 11.8296 49.4994 12.3818 49.4994H14.9343C15.4866 49.4994 15.9343 49.9471 15.9343 50.4994V62.1574C15.9343 62.7097 15.4866 63.1574 14.9343 63.1574H12.3818C11.8296 63.1574 11.3818 62.7097 11.3818 62.1574V50.4994Z" fill="#9DE1E1"/>
</g>
<defs>
<clipPath id="clip0">
<rect width="66" height="66" fill="white"/>
</clipPath>
</defs>
</svg>
