<svg width="83" height="49" viewBox="0 0 83 49" fill="none" xmlns="http://www.w3.org/2000/svg">
<path d="M0.905273 9.51699C4.90527 8.6894 19.526 9.18625 19.526 14.4828C19.526 21.1035 10.8363 19.0186 10.8363 24.4138C10.8363 36.4138 82.0087 30.6207 81.5949 39.7241C81.3316 45.5175 58.8363 48 41.457 48" stroke="#B8B8B8" stroke-width="2" stroke-dasharray="3 3"/>
<g clip-path="url(#clip0)">
<path d="M41.8704 0C33.3191 0 26.3623 6.95783 26.3623 15.5093C26.3623 23.7408 40.433 42.9726 41.0322 43.787L41.5913 44.5479C41.6567 44.6374 41.7608 44.6897 41.8704 44.6897C41.9816 44.6897 42.0851 44.6374 42.1511 44.5479L42.7099 43.787C43.3094 42.9726 57.3798 23.7408 57.3798 15.5093C57.3798 6.95783 50.4218 0 41.8704 0ZM41.8704 9.9539C44.9343 9.9539 47.4258 12.4455 47.4258 15.5093C47.4258 18.5715 44.9342 21.0647 41.8704 21.0647C38.8082 21.0647 36.315 18.5715 36.315 15.5093C36.315 12.4455 38.8081 9.9539 41.8704 9.9539Z" fill="#C7E3BA"/>
</g>
<defs>
<clipPath id="clip0">
<rect x="19.5264" width="44.6897" height="44.6897" fill="white"/>
</clipPath>
</defs>
</svg>
