<svg xmlns="http://www.w3.org/2000/svg" viewBox="0 0 56.79 47.88"><defs><style>.cls-1{fill:#2daf78;}.cls-2{fill:#305eac;}</style></defs><title>Ресурс 1</title><g id="Слой_2" data-name="Слой 2"><g id="Слой_1-2" data-name="Слой 1"><path class="cls-1" d="M19.34,47.88a2.77,2.77,0,0,1-1.91-.77L.82,30.82a2.72,2.72,0,0,1,3.81-3.89L19.27,41.28l21.1-22.2L25.67,4.67A2.72,2.72,0,0,1,29.48.78L46.1,17.06a2.72,2.72,0,0,1,.06,3.82L21.31,47a2.68,2.68,0,0,1-1.92.84Z"/><path class="cls-2" d="M37.78,47.7a2.72,2.72,0,0,1-1.89-.77L9.4,21.29a2.67,2.67,0,0,1-.83-1.92,2.75,2.75,0,0,1,.77-1.94L25.63.82a2.72,2.72,0,1,1,3.89,3.81L15.15,19.29,37.73,41.14l14.4-14.68A2.72,2.72,0,1,1,56,30.27L39.73,46.88A2.71,2.71,0,0,1,37.78,47.7Z"/></g></g></svg>