<svg width="50" height="38" viewBox="0 0 50 38" fill="none" xmlns="http://www.w3.org/2000/svg">
<path d="M49.1333 12.976C48.5896 12.5843 47.8895 12.4781 47.2583 12.6885L37.5 15.9427V14.6657C37.5 13.5157 36.5667 12.5824 35.4167 12.5824H32.175C32.8917 11.3511 33.3333 9.94069 33.3333 8.41569C33.3333 3.82184 29.5958 0.0822906 25 0.0822906C22.5 0.0822906 20.2792 1.21354 18.75 2.96354C17.2208 1.21354 15 0.0822906 12.5 0.0822906C7.9042 0.0822906 4.1667 3.82184 4.1667 8.41559C4.1667 9.94059 4.6084 11.351 5.325 12.5823H2.0833C0.933301 12.5823 0 13.5156 0 14.6656V35.4989C0 36.649 0.933301 37.5823 2.0833 37.5823H35.4166C36.5666 37.5823 37.4999 36.649 37.4999 35.499V34.224L47.2582 37.476C47.4728 37.5468 47.6957 37.5823 47.9165 37.5823C48.3478 37.5823 48.7748 37.449 49.1332 37.1885C49.679 36.7968 49.9999 36.1677 49.9999 35.499V14.6656C50 13.9968 49.6792 13.3677 49.1333 12.976ZM12.5 4.24899C14.7979 4.24899 16.6667 6.11774 16.6667 8.41569C16.6667 10.7135 14.7979 12.5823 12.5 12.5823C10.2021 12.5823 8.3333 10.7135 8.3333 8.41559C8.3333 6.11774 10.2021 4.24899 12.5 4.24899ZM8.3333 22.999C8.3333 21.849 9.2666 20.9157 10.4166 20.9157H18.75C19.9 20.9157 20.8333 21.849 20.8333 22.999C20.8333 24.149 19.9 25.0823 18.75 25.0823H10.4167C9.2667 25.0823 8.3333 24.149 8.3333 22.999ZM27.0833 31.3323H18.75C17.6 31.3323 16.6667 30.399 16.6667 29.249C16.6667 28.099 17.6 27.1657 18.75 27.1657H27.0833C28.2333 27.1657 29.1666 28.099 29.1666 29.249C29.1666 30.399 28.2333 31.3323 27.0833 31.3323ZM25 12.5823C22.7021 12.5823 20.8333 10.7135 20.8333 8.41559C20.8333 6.11764 22.7021 4.24889 25 4.24889C27.2979 4.24889 29.1667 6.11764 29.1667 8.41559C29.1667 10.7135 27.2979 12.5823 25 12.5823ZM45.8333 32.6093L37.5 29.8323V20.3343L45.8333 17.5551V32.6093Z" fill="#E9CDFF"/>
</svg>
