<svg width="38" height="52" viewBox="0 0 38 52" fill="none" xmlns="http://www.w3.org/2000/svg">
<path d="M7.93831 14.5006C11.6254 8.41493 15.7263 3.14785 17.8428 0.549782C18.1261 0.201844 18.551 -0.00013558 18.9996 6.82814e-08C19.4484 6.82814e-08 19.8732 0.20198 20.1566 0.549917C22.273 3.1488 26.3739 8.41764 30.0609 14.5039C34.8124 22.3475 37.2217 28.8324 37.2217 33.7781C37.2217 43.8257 29.0474 52 18.9998 52C8.95215 52 0.777847 43.8257 0.777847 33.7781C0.77771 28.8291 3.18669 22.3433 7.93831 14.5006ZM16.4992 45.2885C17.5632 45.5607 18.6677 45.6985 19.7826 45.6985C26.5902 45.6985 32.1286 40.5535 32.1286 34.2294C32.1286 32.7027 31.7258 30.9189 30.9315 28.9279C30.7974 28.5915 30.4151 28.3995 30.0383 28.4809C29.6617 28.5621 29.4089 28.8903 29.4477 29.2473C29.4941 29.6744 29.5177 30.0915 29.5177 30.4866C29.5177 37.3687 23.9722 43.1319 16.6185 43.8915C16.2525 43.9293 15.9669 44.2031 15.9378 44.5442C15.9085 44.8854 16.1442 45.1977 16.4992 45.2885Z" fill="#608bd3"/>
</svg>
